Coordinates
version=1
nRows=12
nColumns=24
inDegrees=yes

Units are S.I. units (second, meters, Newtons, ...)
Angles are in degrees.

endheader
time	pelvis_tilt	pelvis_list	pelvis_rotation	pelvis_tx	pelvis_ty	pelvis_tz	hip_flexion_r	hip_adduction_r	hip_rotation_r	knee_angle_r	ankle_angle_r	subtalar_angle_r	mtp_angle_r	hip_flexion_l	hip_adduction_l	hip_rotation_l	knee_angle_l	ankle_angle_l	subtalar_angle_l	mtp_angle_l	lumbar_extension	lumbar_bending	lumbar_rotation
      0.98316667	     -3.60553073	     -3.50502574	     -2.02386019	     -0.08149370	      1.01389380	      0.29300803	     -6.60100808	      8.86634251	      1.93742916	    -15.03132308	     12.94174396	     -3.51606241	      4.52081039	     23.45247772	     -2.57506598	     -2.76747468	      3.93860768	      5.98628704	     -4.29528970	     -4.65798448	     -1.85038026	      2.26921944	      4.80405901
      0.98733333	     -3.56596546	     -3.42973793	     -2.04385556	     -0.07573929	      1.01331115	      0.29270546	     -6.72771255	      8.74978470	      1.91244820	    -15.54963436	     12.91797831	     -3.52538819	      4.54365556	     23.47987440	     -2.39733347	     -2.44427152	      3.46908675	      6.08433342	     -4.30521728	     -4.60496151	     -1.87883676	      2.19023612	      4.84232833
      0.99150000	     -3.55775270	     -3.31080618	     -2.08140279	     -0.06993785	      1.01269951	      0.29238770	     -6.75360030	      8.56344589	      1.74920848	    -16.22010933	     13.08897601	     -3.14203001	      4.67961244	     23.53074053	     -2.18035957	     -2.14302618	      2.96593193	      6.05349477	     -4.37996140	     -4.34875265	     -1.84433549	      2.04498250	      4.91430515
      0.99566667	     -3.49116165	     -3.17965579	     -2.10852223	     -0.06412034	      1.01219031	      0.29207222	     -6.83527135	      8.36988279	      1.61593033	    -16.89566186	     13.18179746	     -2.89698562	      4.89673850	     23.52309979	     -1.94900699	     -1.85288458	      2.41137312	      5.99187273	     -4.49058242	     -3.93886191	     -1.88585783	      1.87705930	      4.96497312
      0.99983333	     -3.42500625	     -3.03959288	     -2.13547315	     -0.05826856	      1.01172353	      0.29180603	     -6.92247693	      8.18979442	      1.60227681	    -17.54655898	     13.10154346	     -2.98433319	      4.93140145	     23.52924466	     -1.71536516	     -1.62573307	      1.78493560	      5.94533139	     -4.53414135	     -3.87137592	     -1.92604237	      1.69988836	      4.98344548
      1.00400000	     -3.38813908	     -2.89476815	     -2.16487787	     -0.05242394	      1.01119777	      0.29149388	     -6.90440842	      7.97800453	      1.41670983	    -18.35592073	     13.19752945	     -2.64058882	      5.20137926	     23.56064094	     -1.47487957	     -1.32182753	      1.14736676	      5.75117397	     -4.79880432	     -3.42797787	     -1.91911734	      1.51177072	      5.05631265
      1.00816667	     -3.30748931	     -2.72733925	     -2.18593347	     -0.04653512	      1.01076538	      0.29118195	     -6.92469570	      7.74589987	      1.24904259	    -19.17214048	     13.19094999	     -2.43260748	      5.76650174	     23.53372978	     -1.20884998	     -1.01249618	      0.50624910	      5.47573901	     -5.16174467	     -2.54339352	     -1.95902225	      1.28661000	      5.11540842
      1.01233333	     -3.20253952	     -2.57581286	     -2.17789091	     -0.04062780	      1.01040554	      0.29088080	     -6.98658209	      7.55659602	      1.17148685	    -19.92929198	     12.90606106	     -2.59464910	      8.07423977	     23.50629986	     -0.95814403	     -0.76175361	     -0.20185914	      5.20694313	     -5.36918023	      0.76366898	     -2.03655494	      1.07806148	      5.12859658
      1.01650000	     -3.11632483	     -2.39124761	     -2.22609135	     -0.03471933	      1.01005062	      0.29060837	     -6.95952610	      7.30736089	      1.04983499	    -20.83982099	     12.80201867	     -2.47037185	      8.13777661	     23.49360915	     -0.69459393	     -0.64154272	     -0.93227544	      4.97972676	     -5.54349422	      0.81108847	     -2.09279497	      0.83641728	      5.17949760
      1.02066667	     -3.02482862	     -2.21611648	     -2.24827656	     -0.02880279	      1.00971291	      0.29029789	     -6.91232771	      7.06555115	      0.87099698	    -21.78796709	     12.64375575	     -2.34322192	      8.26936516	     23.46534707	     -0.43101489	     -0.40850914	     -1.64946507	      4.65855340	     -5.90328822	      0.90561877	     -2.14622760	      0.60397322	      5.23215668
      1.02483333	     -2.92307180	     -2.01607524	     -2.26946856	     -0.02284537	      1.00943353	      0.29000624	     -6.86060618	      6.80081585	      0.70903994	    -22.75422502	     12.35303646	     -2.32157064	      8.36517184	     23.42346097	     -0.14875786	     -0.24022634	     -2.37614464	      4.35767444	     -6.14864949	      0.97015955	     -2.20952611	      0.31497561	      5.26201880
      1.02900000	     -2.81034566	     -1.83026363	     -2.29324275	     -0.01693466	      1.00919136	      0.28965359	     -6.76665811	      6.52802678	      0.46049292	    -23.82029270	     12.15948035	     -2.11049390	      8.62944191	     23.36055302	      0.12533489	      0.00338342	     -3.08313138	      3.90298386	     -6.70924195	      1.12526267	     -2.29443324	      0.09660075	      5.33199515
